<svg width="108" height="37" viewBox="0 0 108 37" fill="none" xmlns="http://www.w3.org/2000/svg">
<g filter="url(#filter0_d_14440_494)">
<path d="M103.104 28.3738C101.671 28.5951 99.9387 28.9974 94.6231 28.9974C88.8098 28.9974 84.3105 27.4083 84.3105 19.7445V10.2503C84.3105 2.58646 88.8298 0.997375 94.6231 0.997375C99.9387 0.997375 101.671 1.39967 103.104 1.62093C103.781 1.70139 104 1.94278 104 2.56634V5.48301C104 5.98588 103.602 6.38818 103.104 6.38818H93.986C91.3979 6.38818 90.4622 7.29335 90.4622 10.2704V12.0807H102.567C103.064 12.0807 103.462 12.483 103.462 12.9859V16.2445C103.462 16.7474 103.064 17.1497 102.567 17.1497H90.4622V19.7847C90.4622 22.7617 91.3979 23.6669 93.986 23.6669H103.104C103.602 23.6669 104 24.0692 104 24.5721V27.4686C104 28.052 103.781 28.2934 103.104 28.3738Z" fill="#111111"/>
<path d="M50.6058 2.54621L46.1862 27.5692C46.0866 28.0319 45.7283 28.4342 45.2903 28.4342H44.8324C44.4342 28.4342 44.1953 28.1123 44.1953 27.7502C44.1953 27.6497 44.1953 27.6094 44.1953 27.5692L48.615 2.54621C48.7145 2.08357 49.0729 1.68127 49.5109 1.68127H49.9688C50.3669 1.68127 50.6058 2.00311 50.6058 2.36518C50.6058 2.46576 50.6058 2.50598 50.6058 2.54621Z" fill="#111111"/>
<path d="M39.3175 2.44564L35.6743 24.7732C35.2761 27.6094 33.9821 28.4342 31.6528 28.4342H29.2439C27.2331 28.4342 26.1581 27.4485 25.5409 24.8336L22.0171 13.6094C21.9375 13.2071 21.9375 13.1066 21.7583 13.1066C21.5791 13.1066 21.5393 13.187 21.4398 13.6094L17.8961 24.8336C17.2789 27.4485 16.2039 28.4342 14.1931 28.4342H11.7643C9.435 28.4342 8.14095 27.6296 7.74278 24.7732L4 2.44564C4 2.40541 4 2.36518 4 2.30484C4 1.90254 4.35835 1.68127 4.75652 1.68127H9.49472C9.85308 1.68127 10.2114 2.00311 10.2512 2.48587L13.0185 22.279C13.0583 22.6813 13.0583 22.9629 13.2375 22.9629C13.4167 22.9629 13.4167 22.7014 13.4963 22.279L17.3386 10.1094C17.5975 9.02323 18.2345 8.07783 20.1457 8.07783H23.2315C25.1427 8.07783 25.7798 9.02323 26.0386 10.1094L29.8809 22.279C29.9606 22.6813 29.9606 22.9629 30.1398 22.9629C30.3189 22.9629 30.3189 22.7014 30.3588 22.279L33.0265 2.48587C33.0663 1.983 33.4246 1.68127 33.783 1.68127H38.5212C38.9194 1.68127 39.2777 1.90254 39.2777 2.30484C39.3175 2.36518 39.3175 2.40541 39.3175 2.44564Z" fill="#111111"/>
<path d="M77.5219 1.68127H76.9844C76.5265 1.68127 76.208 2.08357 76.1283 2.54621L72.0272 26.1411C71.9874 26.3221 71.7485 26.5031 71.7087 26.5031H71.6888C71.6689 26.5031 71.6689 26.5031 71.649 26.5031C71.5096 26.483 71.4698 26.3623 71.43 26.2014L64.0439 3.10944C63.7652 2.32495 63.1879 1.70139 62.0133 1.70139C61.9536 1.70139 61.8938 1.70139 61.8341 1.70139C61.8142 1.70139 61.7744 1.70139 61.7545 1.70139C60.8586 1.80197 59.8234 2.3853 59.5446 3.91403L55.3838 27.5692C55.3838 27.6094 55.3838 27.6698 55.3838 27.7502C55.3838 28.1123 55.6028 28.4342 56.0209 28.4342H56.4788C56.9366 28.4342 57.295 28.0319 57.3746 27.5692L61.5355 3.91403C61.5753 3.71289 61.6748 3.63243 61.7545 3.61231C61.7744 3.61231 61.7744 3.59219 61.7943 3.59219C61.8142 3.59219 61.8142 3.59219 61.8341 3.59219C61.9934 3.61231 62.1526 3.733 62.1925 3.91403L69.5785 26.9658C69.9368 28.1123 70.5341 28.4342 71.649 28.4342H71.6689C72.7837 28.414 73.7792 27.6094 74.038 26.1612L78.1391 2.56633C78.1391 2.5261 78.1391 2.42553 78.1391 2.3853C78.159 2.00311 77.9798 1.68127 77.5219 1.68127Z" fill="#111111"/>
</g>
<defs>
<filter id="filter0_d_14440_494" x="-2.24609" y="0.997375" width="110.946" height="39" filterUnits="userSpaceOnUse" color-interpolation-filters="sRGB">
<feFlood flood-opacity="0" result="BackgroundImageFix"/>
<feColorMatrix in="SourceAlpha" type="matrix" values="0 0 0 0 0 0 0 0 0 0 0 0 0 0 0 0 0 0 127 0" result="hardAlpha"/>
<feOffset dy="4"/>
<feGaussianBlur stdDeviation="2"/>
<feComposite in2="hardAlpha" operator="out"/>
<feColorMatrix type="matrix" values="0 0 0 0 0 0 0 0 0 0 0 0 0 0 0 0 0 0 0.25 0"/>
<feBlend mode="normal" in2="BackgroundImageFix" result="effect1_dropShadow_14440_494"/>
<feBlend mode="normal" in="SourceGraphic" in2="effect1_dropShadow_14440_494" result="shape"/>
</filter>
</defs>
</svg>
